<?xml version="1.0" encoding="UTF-8" standalone="no"?>
<svg xmlns="http://www.w3.org/2000/svg" xmlns:xlink="http://www.w3.org/1999/xlink" width="48" height="48">
  <defs>
    <linearGradient id="d">
      <stop offset="0"/>
      <stop offset="1" stop-color="#fff" stop-opacity=".485"/>
    </linearGradient>
    <linearGradient id="b">
      <stop offset="0" stop-color="#babdb6"/>
      <stop offset="1" stop-color="#555753"/>
    </linearGradient>
    <linearGradient id="c">
      <stop offset="0" stop-color="#f7f7f7"/>
      <stop offset="1" stop-color="#ccd0c7"/>
    </linearGradient>
    <linearGradient id="a">
      <stop offset="0" stop-color="#fff"/>
      <stop offset="1" stop-color="#fff" stop-opacity="0"/>
    </linearGradient>
    <linearGradient id="h" x1="15.09" x2="14" y1="15.292" y2="52.511" gradientTransform="matrix(3.0002 0 0 1 -67.006 -.094)" gradientUnits="userSpaceOnUse" xlink:href="#a"/>
    <linearGradient id="g" x1="169" x2="169" y1="110.338" y2="93.205" gradientTransform="matrix(2.49888 0 0 1.00438 -414.062 -71.463)" gradientUnits="userSpaceOnUse" xlink:href="#b"/>
    <radialGradient id="f" cx="169.772" cy="100.201" r="11" fx="169.772" fy="100.201" gradientTransform="matrix(0 -1.07205 4.98026 0 -490.78 212.695)" gradientUnits="userSpaceOnUse" xlink:href="#c"/>
    <linearGradient id="e" x1="174.834" x2="174.745" y1="84.263" y2="105.491" gradientTransform="matrix(2.62453 0 0 1.05492 -436.102 -76.311)" gradientUnits="userSpaceOnUse" xlink:href="#d"/>
  </defs>
  <g color="#000">
    <path fill="none" stroke="url(#e)" stroke-linecap="square" stroke-linejoin="round" stroke-width="2" d="M 14.00382,12.829103 L 14.00382,34.982359 L 35.000004,34.982359 L 35.000004,12.829103 L 14.00382,12.829103 z" opacity=".15" style="marker:none"/>
    <path fill="url(#f)" fill-rule="evenodd" d="M 14.5,13.40575 L 14.5,34.40575 L 34.5,34.40575 L 34.5,13.40575 L 14.5,13.40575 z" style="marker:none"/>
    <path fill="none" stroke="url(#g)" stroke-linecap="square" stroke-linejoin="round" d="M 14.496737,13.407946 L 14.496737,34.50001 L 34.487808,34.50001 L 34.487808,13.407946 L 14.496737,13.407946 z" style="marker:none"/>
    <path fill="none" stroke="url(#h)" stroke-linecap="square" d="M 15.499412,14.40575 L 15.499412,33.40575 L 33.500595,33.40575 L 33.500595,14.40575 L 15.499412,14.40575 z" style="marker:none"/>
    <path fill="#f7f7f7" d="M 16,14.942758 L 16,25.5 L 33,22.70967 L 33,14.85437 L 16,14.942758 z" display="block" opacity=".5" style="marker:none"/>
  </g>
</svg>
